<svg xmlns="http://www.w3.org/2000/svg" xmlns:xlink="http://www.w3.org/1999/xlink" viewBox="0,0,256,256" width="24px" height="24px" fill-rule="nonzero"><g transform="translate(-40.96,-40.96) scale(1.32,1.32)"><g fill="#1a1a1a" fill-rule="nonzero" stroke="none" stroke-width="1" stroke-linecap="butt" stroke-linejoin="miter" stroke-miterlimit="10" stroke-dasharray="" stroke-dashoffset="0" font-family="none" font-weight="none" font-size="none" text-anchor="none" style="mix-blend-mode: normal"><g transform="scale(10.66667,10.66667)"><path d="M16,3h-8c-2.75,0 -5,2.25 -5,5v8c0,2.75 2.25,5 5,5h8c2.75,0 5,-2.25 5,-5v-8c0,-2.75 -2.25,-5 -5,-5zM7.916,16.777c-0.096,0.145 -0.255,0.223 -0.416,0.223c-0.095,0 -0.191,-0.027 -0.277,-0.084c-0.23,-0.153 -0.292,-0.464 -0.139,-0.693l0.148,-0.223h1.202zM6.5,15c-0.276,0 -0.5,-0.224 -0.5,-0.5c0,-0.276 0.224,-0.5 0.5,-0.5h2.066l2.833,-4.25l-1.315,-1.973c-0.153,-0.229 -0.091,-0.54 0.139,-0.693c0.229,-0.153 0.54,-0.092 0.693,0.139l1.084,1.626l1.084,-1.626c0.153,-0.23 0.462,-0.292 0.693,-0.139c0.23,0.153 0.292,0.464 0.139,0.693l-4.148,6.223h3.263l0.667,1zM17.5,15h-1.399l0.815,1.223c0.153,0.229 0.091,0.54 -0.139,0.693c-0.085,0.057 -0.181,0.084 -0.277,0.084c-0.162,0 -0.32,-0.078 -0.417,-0.223l-3.483,-5.225l0.601,-0.901l2.233,3.349h2.066c0.276,0 0.5,0.224 0.5,0.5c0,0.276 -0.224,0.5 -0.5,0.5z"></path></g></g></g></svg>