<?xml version="1.0" encoding="UTF-8"?>
<svg version="1.1" xmlns="http://www.w3.org/2000/svg" width="234" height="234">
<path d="M0 0 C2.33577497 1.73108196 4.48323396 3.55403946 6.62109375 5.5234375 C7.21535156 6.06355469 7.80960938 6.60367187 8.421875 7.16015625 C18.36754338 17.33446068 32.62109375 42.52614536 32.62109375 56.5234375 C33.70261719 56.60980469 34.78414062 56.69617187 35.8984375 56.78515625 C81.78155513 60.8272525 81.78155513 60.8272525 93.62109375 72.5234375 C93.98510742 75.54711914 93.98510742 75.54711914 93.6015625 79.12109375 C93.53656052 79.77425064 93.47155853 80.42740753 93.40458679 81.10035706 C93.1775864 83.24692843 92.90519658 85.38371183 92.62109375 87.5234375 C92.52878479 88.24521179 92.43647583 88.96698608 92.34136963 89.71063232 C91.63333693 95.14288235 90.80255402 100.55236452 89.93359375 105.9609375 C89.80170654 106.79015717 89.66981934 107.61937683 89.53393555 108.47372437 C87.30956374 122.3598691 84.64048272 136.02958427 80.62109375 149.5234375 C80.3895459 150.30364258 80.15799805 151.08384766 79.91943359 151.88769531 C75.09546133 167.68204002 67.90396159 182.33717138 56.62109375 194.5234375 C55.87472656 195.36132812 55.12835938 196.19921875 54.359375 197.0625 C38.92560343 213.54219659 15.49920837 225.39156315 -7.20874023 226.68457031 C-35.86960998 227.09726764 -59.90538515 222.41075842 -82.37890625 203.5234375 C-83.1678125 202.89179688 -83.95671875 202.26015625 -84.76953125 201.609375 C-115.38331174 175.90535176 -121.37622345 132.38366767 -126.87890625 95.1484375 C-127.0209549 94.21117828 -127.16300354 93.27391907 -127.30935669 92.30825806 C-127.71217777 89.62408974 -128.09560855 86.93789607 -128.47265625 84.25 C-128.59515244 83.44279007 -128.71764862 82.63558014 -128.84385681 81.8039093 C-129.42343746 77.48193814 -129.63798666 74.45523268 -127.37890625 70.5234375 C-113.89286651 60.24172539 -90.69454564 58.4297474 -74.3359375 57.09765625 C-69.99758651 56.52381088 -69.99758651 56.52381088 -67.37890625 53.5234375 C-66.09341385 50.98495329 -66.09341385 50.98495329 -64.9609375 48.0703125 C-64.51532471 46.98290771 -64.06971191 45.89550293 -63.6105957 44.77514648 C-63.14226318 43.61958252 -62.67393066 42.46401855 -62.19140625 41.2734375 C-47.47501138 5.84579891 -47.47501138 5.84579891 -30.37890625 -2.4765625 C-20.64904286 -6.36850786 -8.9360734 -5.54652832 0 0 Z M-28.8046875 21.97265625 C-32.56620772 26.48445274 -35.05204248 31.63027422 -37.56640625 36.8984375 C-38.06599854 37.94100708 -38.06599854 37.94100708 -38.57568359 39.00463867 C-41.10829259 44.49323148 -42.60307327 49.60399425 -44.37890625 55.5234375 C-26.55890625 55.5234375 -8.73890625 55.5234375 9.62109375 55.5234375 C2.64183768 34.51610808 2.64183768 34.51610808 -11.37890625 17.5234375 C-18.67668531 15.09084448 -23.46950092 16.54976797 -28.8046875 21.97265625 Z " fill="#1E1E1E" transform="translate(135.37890625,6.4765625)"/>
</svg>
