<?xml version="1.0" encoding="utf-8"?>
<svg xmlns="http://www.w3.org/2000/svg" viewBox="122.587 -101.587 669.4 669.4" width="669.4px" height="669.4px"><path d="M 791.987 233.113 C 791.987 417.963 642.137 567.813 457.287 567.813 C 272.437 567.813 122.587 417.963 122.587 233.113 C 122.587 48.263 272.437 -101.587 457.287 -101.587 C 642.137 -101.587 791.987 48.263 791.987 233.113 Z M 483.352 430.47 C 496.989 428.031 511.614 422.887 522.696 416.64 C 530.9 411.854 540.595 403.778 547.531 396.459 C 554.613 388.987 560.449 378.201 560.813 371.555 C 560.485 369.759 559.467 366.417 557.972 364.57 C 555.92 362.033 549.849 360.007 546.79 360.634 C 543.471 361.314 539.249 364.348 535.798 367.379 C 524.564 377.59 512.33 383.585 493.828 388.037 C 452.049 398.799 406.625 391.005 382.574 368.813 C 380.364 366.869 377.996 364.964 376.226 363.696 C 374.247 362.279 368.694 360.986 364.402 360.696 C 361.556 362.402 357.688 365.871 356.859 368.258 C 356.198 370.165 355.963 373.24 356.144 375.11 C 356.455 378.331 358.265 383.092 360.29 386.432 C 364.739 392.973 378.396 406.629 385.393 411.537 C 398.307 420.269 416.106 427.466 432.362 430.52 C 444.388 432.619 470.71 432.594 483.352 430.47 Z M 292.99 366.593 C 301.053 362.612 308.648 355.132 312.788 347.091 L 316.336 339.598 L 316.357 270.981 C 316.37 202.259 316.61 193.006 320.122 183.641 C 323.196 174.196 328.577 167.417 336.375 161.493 C 344.179 155.563 352.24 152.153 362.3 151.639 C 374.442 150.445 384.051 153.489 393.344 159.984 C 402.673 166.505 409.217 174.902 412.971 187.322 C 414.487 191.39 414.514 197.197 415.064 254.61 C 415.676 317.964 416.308 321.334 419.232 327.829 C 426.971 340.75 440.564 348.764 455.801 349.365 C 471.681 348.492 485.156 339.802 492.582 325.625 C 495.264 318.956 495.81 314.804 496.346 251.856 C 496.88 188.575 496.622 188.841 498.683 184.091 C 503.803 169.324 513.483 159.543 528.175 154.29 C 533.453 152.112 534.58 152.008 544.16 151.988 C 553.42 151.877 555.239 152.043 560.257 153.889 C 572.787 157.813 584.71 168.374 589.018 179.398 C 591.933 186.029 592.341 186.709 592.899 195.229 C 593.578 205.585 593.679 224.308 593.989 263.921 L 594.591 341.042 L 599.084 349.225 C 603.878 357.284 613.772 365.522 621.862 368.244 C 630.923 370.477 641.645 370.057 649.56 366.884 C 657.522 363.692 665.426 356.489 670.03 348.658 C 672.987 342.087 673.591 339.478 673.591 266.039 C 673.591 199.207 673.326 190.462 671.407 179.269 C 664.265 141.281 641.774 108.111 609.99 88.642 C 585.654 74.488 556.276 68.452 529.504 71.375 C 502.721 74.3 475.529 86.549 455.252 105.603 L 454.573 106.255 L 453.953 105.686 C 444.151 96.775 429.456 86.915 418.611 81.967 C 380.924 65.681 338.348 68.091 305.529 85.09 C 272.706 102.091 246.253 135.453 237.976 175.561 C 236.635 182.954 236.244 200.314 236.253 261.472 L 236.264 339.597 L 239.812 347.09 C 246.942 360.279 260.938 369.704 276.3 369.704 C 282.536 369.704 288.359 368.519 292.99 366.593 Z" id="circle-1" class="st0" style="fill: rgb(30, 30, 30);"/></svg>